# xmcd
#
# Track frame offsets:
#	150
#	13255
#	27105
#	43087
#	59080
#	77407
#	92520
#	106177
#	124665
#	141245
#
# Disc length: 2100 seconds
#
# Revision: 1
# Processed by: cddbd v1.4PL0 Copyright (c) Steve Scherf et al.
# Submitted via: audiograbber 1.80
#
DISCID=7d08320a
DTITLE=Tuula Wallden - Aurinkokesä...
DYEAR=1900
DGENRE=
TTITLE0=Tahdon Sinut
TTITLE1=Juliet Ja Joonatan
TTITLE2=Haaveiden Laiva
TTITLE3=Vie Meidät Rakkauteen
TTITLE4=Andre
TTITLE5=Seine
TTITLE6=Hyvästi Yö
TTITLE7=Kaunotar Ja Kulkuri
TTITLE8=Olen Luonasi Sun
TTITLE9=Sata Suudelmaa
EXTD=
EXTT0=
EXTT1=
EXTT2=
EXTT3=
EXTT4=
EXTT5=
EXTT6=
EXTT7=
EXTT8=
EXTT9=
PLAYORDER=
